<?xml version="1.0"?>
<svg xmlns="http://www.w3.org/2000/svg" xmlns:xlink="http://www.w3.org/1999/xlink" xmlns:svgjs="http://svgjs.com/svgjs" version="1.1" width="512" height="512" x="0" y="0" viewBox="0 0 456.1 456.1" style="enable-background:new 0 0 512 512" xml:space="preserve" class=""><g>
<g xmlns="http://www.w3.org/2000/svg">
	<g>
		<path d="M415.9,52.5H40.1C18,52.5,0,70.4,0,92.6v270.9c0,22.1,17.9,40.1,40.1,40.1H416c22.1,0,40.1-17.9,40.1-40.1V92.6    C456,70.4,438.1,52.5,415.9,52.5z M436,362.8c-0.1,11-9,19.8-20,19.7h-0.1H40.1c-11,0.1-20-8.6-20.1-19.6v-0.1V164.5h416V362.8z     M436,92.2v52.3H20V92.2c0.1-11,9-19.8,20-19.7h0.1h375.8c11-0.1,20,8.6,20.1,19.6V92.2z" fill="#f5ce32" data-original="#000000" style="" class=""/>
	</g>
</g>
<g xmlns="http://www.w3.org/2000/svg">
	<g>
		<path d="M120.3,77.2c-16.6,0-30,13.4-30,30c0,16.6,13.4,30,30,30c16.6,0,30-13.4,30-30C150.3,90.7,136.9,77.2,120.3,77.2z     M120.3,117.3c-5.5,0-10-4.5-10-10s4.5-10,10-10s10,4.5,10,10S125.8,117.3,120.3,117.3z" fill="#f5ce32" data-original="#000000" style="" class=""/>
	</g>
</g>
<g xmlns="http://www.w3.org/2000/svg">
	<g>
		<path d="M185.4,77.2c-16.6,0-30,13.4-30,30c0,16.6,13.4,30,30,30c16.6,0,30-13.4,30-30C215.4,90.7,202,77.2,185.4,77.2z     M185.4,117.3c-5.5,0-10-4.5-10-10s4.5-10,10-10s10,4.5,10,10C195.5,112.8,191,117.3,185.4,117.3z" fill="#f5ce32" data-original="#000000" style="" class=""/>
	</g>
</g>
<g xmlns="http://www.w3.org/2000/svg">
	<g>
		<path d="M55.1,77.2c-16.6,0-30,13.4-30,30c0,16.6,13.4,30,30,30c16.6,0,30-13.4,30-30C85.2,90.7,71.7,77.2,55.1,77.2z M55.1,117.3    c-5.5,0-10-4.5-10-10s4.5-10,10-10s10,4.5,10,10C65.2,112.8,60.7,117.3,55.1,117.3z" fill="#f5ce32" data-original="#000000" style="" class=""/>
	</g>
</g>
<g xmlns="http://www.w3.org/2000/svg">
	<g>
		<path d="M377.3,280.4c-1.2-2.2-3.2-3.9-5.6-4.8l-116.8-41.1c-5.2-1.8-10.9,0.9-12.7,6.2c-0.7,2.1-0.7,4.4,0,6.6l40.7,117.1    c1.3,3.8,4.7,6.4,8.7,6.7c0.3,0,0.5,0,0.8,0c3.7,0,7.1-2.1,8.8-5.3l14.5-27.5l19,18.9c3.9,3.9,10.2,3.9,14.1,0l15.7-15.7    c3.9-3.9,3.9-10.2,0-14.1l-18.9-19l27.5-14.5C378,291.3,379.9,285.3,377.3,280.4z M320.3,310.3c0.5,0.9,1,1.7,1.7,2.4l21.3,21.5    l-1.7,1.7l-21.3-21.4c-3.9-3.9-10.3-3.9-14.1,0.1c-0.7,0.7-1.3,1.5-1.7,2.4l-10.1,19.2L268,260.4l75.7,26.3l-19.2,10.1    C319.6,299.4,317.7,305.4,320.3,310.3z" fill="#f5ce32" data-original="#000000" style="" class=""/>
	</g>
</g>
<g xmlns="http://www.w3.org/2000/svg">
	<g>
		<path d="M234.7,213l-14-13.9c-3.9-3.9-10.2-4-14.1-0.1c-3.9,3.9-4,10.2-0.1,14.1l0.1,0.1l14,13.9c3.9,3.9,10.2,3.9,14.1,0    C238.6,223.2,238.6,216.9,234.7,213z" fill="#f5ce32" data-original="#000000" style="" class=""/>
	</g>
</g>
<g xmlns="http://www.w3.org/2000/svg">
	<g>
		<path d="M273.7,214l-4-21.3c-1-5.4-6.2-9-11.7-8c-5.4,1-9,6.2-8,11.7l4,21.3c0.9,4.7,5,8.1,9.8,8.2c0.6,0,1.2-0.1,1.9-0.2    C271.1,224.7,274.7,219.5,273.7,214z" fill="#f5ce32" data-original="#000000" style="" class=""/>
	</g>
</g>
<g xmlns="http://www.w3.org/2000/svg">
	<g>
		<path d="M225.3,246.4l-21.3-4c-5.4-1-10.7,2.5-11.7,8s2.6,10.6,8,11.6l21.3,4c0.6,0.1,1.2,0.2,1.9,0.2c5.5,0,10-4.5,10-10    C233.5,251.4,230.1,247.3,225.3,246.4z" fill="#f5ce32" data-original="#000000" style="" class=""/>
	</g>
</g>
<g xmlns="http://www.w3.org/2000/svg">
</g>
<g xmlns="http://www.w3.org/2000/svg">
</g>
<g xmlns="http://www.w3.org/2000/svg">
</g>
<g xmlns="http://www.w3.org/2000/svg">
</g>
<g xmlns="http://www.w3.org/2000/svg">
</g>
<g xmlns="http://www.w3.org/2000/svg">
</g>
<g xmlns="http://www.w3.org/2000/svg">
</g>
<g xmlns="http://www.w3.org/2000/svg">
</g>
<g xmlns="http://www.w3.org/2000/svg">
</g>
<g xmlns="http://www.w3.org/2000/svg">
</g>
<g xmlns="http://www.w3.org/2000/svg">
</g>
<g xmlns="http://www.w3.org/2000/svg">
</g>
<g xmlns="http://www.w3.org/2000/svg">
</g>
<g xmlns="http://www.w3.org/2000/svg">
</g>
<g xmlns="http://www.w3.org/2000/svg">
</g>
</g></svg>
