<?xml version="1.0"?>
<svg xmlns="http://www.w3.org/2000/svg" xmlns:xlink="http://www.w3.org/1999/xlink" xmlns:svgjs="http://svgjs.com/svgjs" version="1.1" width="512" height="512" x="0" y="0" viewBox="0 0 64 64" style="enable-background:new 0 0 512 512" xml:space="preserve" class=""><g><path xmlns="http://www.w3.org/2000/svg" d="m11 15c3 0 4-2 4-2l-2 6h10l-2-6s1 2 4 2c2 0 4-2 4-5s-3-7-11-7-11 4-11 7 2 5 4 5z" fill="#f5ce32" data-original="#000000" style="" class=""/><path xmlns="http://www.w3.org/2000/svg" d="m59.091 51h-8.091-1-5-42v4c0 3.314 2.686 6 6 6h30c3.314 0 6-2.686 6-6v-2h5.696c.541.7 1.35 1.186 2.292 1.272l5.93.539c1.118.101 2.082-.779 2.082-1.902 0-1.054-.855-1.909-1.909-1.909z" fill="#f5ce32" data-original="#000000" style="" class=""/><path xmlns="http://www.w3.org/2000/svg" d="m29.05 35.05c-2.734 2.734-2.734 7.166 0 9.9s7.166 2.734 9.9 0l9.899-9.9c3.515-3.515 3.515-9.213 0-12.728s-9.213-3.515-12.728 0c-2.206 2.206-3.026 5.272-2.462 8.119zm12.728-9.899c.781-.781 2.047-.781 2.828 0s.781 2.047 0 2.828-2.047.781-2.828 0-.781-2.047 0-2.828z" fill="#f5ce32" data-original="#000000" style="" class=""/><path xmlns="http://www.w3.org/2000/svg" d="m46 4v-2c-5.514 0-10 4.486-10 10h2c0-4.411 3.589-8 8-8z" fill="#f5ce32" data-original="#000000" style="" class=""/><path xmlns="http://www.w3.org/2000/svg" d="m7 23h2c0-3.309-2.691-6-6-6v2c2.206 0 4 1.794 4 4z" fill="#f5ce32" data-original="#000000" style="" class=""/><path xmlns="http://www.w3.org/2000/svg" d="m26 26h2c0-2.757 2.243-5 5-5v-2c-3.86 0-7 3.14-7 7z" fill="#f5ce32" data-original="#000000" style="" class=""/><path xmlns="http://www.w3.org/2000/svg" d="m48 2h2v2h-2z" fill="#f5ce32" data-original="#000000" style="" class=""/><path xmlns="http://www.w3.org/2000/svg" d="m42 46h2v2h-2z" fill="#f5ce32" data-original="#000000" style="" class=""/><path xmlns="http://www.w3.org/2000/svg" d="m4.172 43.172c1.562 1.562 4.095 1.562 5.657 0 .286-.286.502-.612.683-.952 1.032.006 2.065-.382 2.852-1.169.155-.155.289-.322.413-.494l4.537 5.443 5.657-5.657-5.444-4.537c.172-.124.339-.258.494-.413.787-.787 1.175-1.821 1.169-2.852.34-.181.666-.397.952-.683 1.562-1.562 1.562-4.095 0-5.657s-4.095-1.562-5.657 0c-1.562-1.562-4.095-1.562-5.657 0-.286.286-.502.612-.683.952-1.032-.006-2.065.382-2.852 1.169s-1.175 1.82-1.169 2.852c-.34.181-.666.397-.952.683-1.562 1.562-1.562 4.095 0 5.657-1.563 1.563-1.563 4.095 0 5.658z" fill="#f5ce32" data-original="#000000" style="" class=""/></g></svg>
